<?xml version="1.0" encoding="UTF-8"?>
<svg width="1000px" height="500px" viewBox="0 0 1000 500" version="1.1" xmlns="http://www.w3.org/2000/svg" xmlns:xlink="http://www.w3.org/1999/xlink">
    <!-- Generator: Sketch 40.3 (33839) - http://www.bohemiancoding.com/sketch -->
    <title>Logo</title>
    <desc>Created with Sketch.</desc>
    <defs>
        <linearGradient x1="31.0454694%" y1="0%" x2="69.5279252%" y2="100%" id="linearGradient-1">
            <stop stop-color="#04DD41" offset="0%"></stop>
            <stop stop-color="#FE4BB5" offset="100%"></stop>
        </linearGradient>
    </defs>
    <g id="Logo-With-Background" stroke="none" stroke-width="1" fill="none" fill-rule="evenodd">
        <g id="Logo">
            <rect id="Background" fill="url(#linearGradient-1)" x="0" y="0" width="1000" height="500" rx="10"></rect>
            <g transform="translate(135.000000, 107.000000)" fill="#FFFFFF">
                <g>
                    <path d="M83.0566448,277.526926 L82.9638958,276.724745 L81.6427093,276.241735 L73.2027251,276.690233 L70.560352,275.724214 L81.0647252,274.647541 L45.8460134,274.525332 L44.5248268,274.042323 L44.3092341,273.272059 L47.9644519,273.148645 L50.1756394,272.574137 L48.8544529,272.091128 L33.2268768,272.754538 L30.4377052,271.734851 L40.1061269,270.967182 L3.63869795,266.854404 L1.88632585,264.830867 L4.43594992,264.994706 L7.75273122,264.132945 L1.43118555,263.204756 L1,261.664229 C10.9094455,259.089572 523.104723,207.280071 707.067125,200.062898 C719.990358,199.153448 725.26404,208.407151 725.26404,208.407151 C741.509822,214.346411 705.499036,220.206474 705.499036,220.206474 C707.101791,220.792422 87.9081831,278.225002 83.0566448,277.526926 Z" id="Line" transform="translate(365.236989, 238.766619) rotate(-1.000000) translate(-365.236989, -238.766619) "></path>
                    <path d="M542.625727,98.8932455 C541.33843,95.9433243 539.259492,93.8199792 536.388894,92.523178 C531.101355,84.568717 506.382638,81.0787813 462.232001,82.0532663 L461.357909,82.145137 L461.174168,80.396954 C494.883115,60.4227614 523.521266,49.1972738 547.089481,46.7201546 L552.528272,46.1485146 C558.161335,45.5564559 560.95644,40.3857502 560.913672,30.6362425 L558.8963,19.85053 L559.392701,16.165172 L558.51861,16.2570427 L557.552647,15.4748219 C552.577956,11.7425812 548.730963,10.0193974 546.011553,10.3052189 L544.166249,10.4991682 C504.540569,14.663995 464.296292,34.1137827 423.432211,68.849115 C417.160412,78.9349949 414.388636,87.4418169 415.1168,94.3698361 C415.906211,101.880586 419.515796,107.26187 425.945662,110.51385 C426.735073,118.0246 452.914095,120.771892 504.483513,118.75581 C499.899441,123.099938 482.009368,132.573867 450.812759,147.17788 C403.513961,166.158289 380.024839,177.169902 380.344686,180.213051 L380.436557,181.087143 C382.249497,180.896595 383.220602,181.416418 383.349902,182.646627 L385.098085,182.462885 L385.189956,183.336977 L384.407735,184.302939 L384.499606,185.177031 L386.34491,184.983081 L387.127131,184.017119 C387.317679,185.830059 388.610768,186.610619 391.006438,186.358824 L391.292258,189.07822 L390.510038,190.044182 L396.142778,191.317846 L396.234649,192.191938 L394.389345,192.385887 L394.583294,194.231192 L397.30269,193.945372 L397.486431,195.693555 C394.555668,196.459832 393.161762,197.522807 393.304673,198.882512 L393.406751,199.853725 L403.119172,196.967219 L403.313122,198.812523 L397.275851,202.098308 L397.377929,203.069521 L398.343891,203.851742 C440.45897,188.49293 473.469481,175.269529 497.376414,164.181142 C510.406463,157.759597 522.309924,150.066622 533.087032,141.102056 C528.516167,154.297054 526.478218,163.248922 526.973143,167.957813 L527.544783,173.396604 C530.587931,173.076757 532.269404,174.438387 532.589252,177.481535 L545.791909,180.709006 L549.099576,177.611919 L549.293525,179.457224 L550.264738,179.355145 L560.097336,159.861194 C562.900754,145.426512 566.154925,135.592477 569.859944,130.358794 L570.831157,130.256715 L571.807327,131.136057 C572.843293,131.027173 573.879536,129.052589 574.916088,125.212246 L637.689697,102.117853 L638.563789,102.025983 L635.23949,113.373127 C627.061023,134.591745 623.570705,150.898619 624.768433,162.294239 C625.047449,164.948901 626.209099,167.281636 628.253418,169.292515 L629.12751,169.200645 L629.899523,168.137561 L631.258634,171.726091 C637.988909,171.607879 641.418646,172.163869 641.547946,173.394078 L643.981522,170.388862 L644.855613,170.296991 L645.821575,171.079212 L646.792788,170.977133 C649.901467,165.675202 651.302666,161.567471 650.996429,158.653818 C651.71372,148.038868 654.251979,140.113018 658.611282,134.87603 L658.509203,133.904817 L657.543241,133.122596 L658.417333,133.030726 L658.131513,130.31133 L660.942779,130.899601 L661.816871,130.807731 L661.622922,128.962426 L660.656959,128.180205 L661.15336,124.494847 L662.998664,124.300898 C662.808117,122.487959 663.619301,121.48623 665.43224,121.295682 L665.238291,119.450378 L664.262121,118.571036 C670.181591,116.966928 672.87588,113.639758 672.345069,108.589426 L673.316282,108.487348 L674.282244,109.269568 L675.156335,109.177698 C677.174802,102.222848 678.960982,98.6638139 680.51493,98.5004874 C680.910809,94.7929449 681.626721,92.8847601 682.662686,92.7758758 L682.570816,91.9017843 L681.594645,91.0224422 L681.502775,90.1483507 C683.898445,89.8965556 685.00099,88.8642037 684.810442,87.0512641 L695.116385,80.4691925 L694.922436,78.6238882 L691.91722,76.1903124 C691.549735,72.6939288 692.724712,66.1224146 695.442185,56.4755725 C705.590113,36.5556078 710.436028,24.4267546 709.980075,20.0886492 L709.408435,14.6498575 C697.987353,4.39421808 688.899852,-0.476776177 682.145661,0.0367286366 L673.302081,3.71566307 C665.628768,19.7750645 658.764417,38.8586626 652.708822,60.96703 L598.783751,81.3639085 L596.938446,81.5578578 L603.187765,62.5387187 C610.622698,45.4569623 614.071304,34.3587108 613.533687,29.2436312 C601.908643,15.8017369 591.725794,9.5402396 582.984835,10.4589514 L572.587021,16.1669316 L566.337703,35.1860708 L566.429574,36.0601623 L567.395536,36.8423831 L553.137043,84.2958817 C552.471124,89.0124907 548.967379,93.8782467 542.625727,98.8932455 Z M199.699512,57.2804781 L200.051237,54.6692114 L199.177146,54.7610821 L198.211184,53.9788613 C193.236492,50.2466206 189.389499,48.5234368 186.67009,48.8092583 L184.824785,49.0032076 C145.199106,53.1680343 104.954828,72.6178221 64.090747,107.353154 C57.8189478,117.439034 55.0471719,125.945856 55.775336,132.873875 C56.5647477,140.384625 60.1743322,145.76591 66.6041979,149.01789 C67.3936096,156.52864 93.5726316,159.275932 145.14205,157.259849 C140.557977,161.603978 122.667904,171.077907 91.4712947,185.68192 C44.1724973,204.662328 20.6833748,215.673942 21.0032226,218.71709 L21.0950933,219.591182 C22.9080329,219.400634 23.8791383,219.920457 24.0084384,221.150666 L25.7566215,220.966925 L25.8484922,221.841016 L25.0662714,222.806979 L25.1581421,223.68107 L27.0034464,223.487121 L27.7856672,222.521159 C27.9762148,224.334098 29.2693043,225.114659 31.6649745,224.862864 L31.9507945,227.582259 L31.1685737,228.548222 L36.8013147,229.821886 L36.8931854,230.695977 L35.0478811,230.889927 L35.2418304,232.735231 L37.9612262,232.449411 L38.1449676,234.197594 C35.2142038,234.963871 33.8202981,236.026847 33.9632088,237.386551 L34.0652874,238.357764 L43.7777085,235.471258 L43.9716578,237.316563 L37.9343869,240.602348 L38.0364654,241.573561 L39.0024277,242.355781 C81.1175063,226.99697 114.128017,213.773569 138.03495,202.685182 C153.905954,194.86354 168.105553,185.155606 180.634173,173.561087 C183.00168,173.312252 184.356718,167.592565 184.699304,156.4019 C185.325228,160.090036 185.919964,163.037478 186.483512,165.244238 C192.803888,192.990928 198.100676,206.639494 202.374033,206.190346 C205.075941,208.852204 206.977223,210.125269 208.077936,210.009579 L208.952028,209.917708 L209.734248,208.951746 C213.21663,210.942405 216.835454,211.740369 220.590829,211.345663 C228.68431,210.495004 234.250018,204.280282 237.288121,192.70131 C241.750872,179.728803 248.160919,167.533746 256.518455,156.115774 C258.730169,177.158823 264.285944,190.780168 273.185947,196.980219 C273.52621,200.217611 281.179463,202.653597 296.145934,204.288249 C299.707065,203.913959 303.634752,201.733666 307.929112,197.747302 L313.349834,182.05566 L348.534926,102.944437 C370.542033,59.4551027 381.320852,35.5741152 380.871704,31.3007576 L380.779833,30.426666 L378.065688,29.8281867 L377.191596,29.9200574 L376.409375,30.8860196 L376.997647,28.0747531 C376.875152,26.9092919 372.642983,25.8812131 364.301012,24.9904856 L363.702533,27.7046309 L362.828441,27.7965016 C362.644699,26.0483098 361.324389,25.0087618 358.867471,24.6778263 L356.337067,25.82753 L356.245197,24.9534385 L355.279234,24.1712177 C350.252428,26.7943757 347.909191,29.7246069 348.249455,32.961999 C342.481637,45.3515802 339.720264,52.7117215 339.965254,55.0426439 C337.589804,56.7325021 331.643388,67.7332422 322.125828,88.0451944 L322.217698,88.9192859 L323.183661,89.7015067 C320.852738,89.9464965 319.318936,92.1697626 318.582207,96.3713716 C307.766775,113.677506 298.551513,130.324248 290.936142,146.312097 L290.062051,146.403967 L288.259044,137.657802 L289.041265,136.691839 L287.387592,120.958192 L288.023118,110.188231 L295.244529,85.4698535 C295.122034,84.3043923 294.186705,83.8135403 292.438513,83.9972827 L288.385672,80.0045158 L284.015214,80.4638694 L283.232994,81.4298317 L282.267031,80.6476109 L281.39294,80.7394816 L278.954407,82.7632768 L278.080315,82.8551475 L273.617987,82.4404096 L274.400208,81.4744474 L274.308337,80.6003559 L273.342375,79.8181351 L267.315605,81.3353216 L264.596209,81.6211416 L258.385698,81.3901452 L256.821256,83.3220696 L251.760449,85.621477 C251.683245,99.8350854 250.964801,107.013237 249.605096,107.156148 L218.693662,151.253845 L218.224101,146.786266 L218.730709,143.198029 L217.489135,139.793534 L217.121652,136.297168 L217.53639,131.834839 L216.570428,131.052619 L216.985166,126.59029 L215.549642,121.340491 L214.263452,109.10321 L214.355644,75.4129202 L213.702341,69.1971583 L211.305813,64.1465586 C207.82766,60.9698513 203.958908,58.6811642 199.699512,57.2804781 Z M177.48721,86.7916328 C156.011592,91.0372001 130.793605,101.740249 101.832704,118.900993 L102.016446,120.649176 L102.890537,120.557306 C147.041174,119.582821 171.759891,123.072756 177.04743,131.027217 C178.916944,131.871776 180.45068,133.066907 181.648644,134.61262 C180.897845,128.434248 180.113144,121.450825 179.294541,113.662338 L177.48721,86.7916328 Z M391.66202,34.0627725 L397.00369,33.5013403 C407.751832,32.3716651 416.604358,36.2526932 423.561535,45.144541 L423.939226,48.7380283 C424.116163,50.4214722 419.515821,61.1498101 410.138061,80.9233637 L379.358128,166.445178 C375.229813,176.371232 372.201191,182.122909 370.272171,183.700382 L369.296001,182.82104 L368.421909,182.912911 L367.046166,187.574439 L365.297983,187.75818 L366.392863,181.358677 L358.278119,198.511803 L357.404027,198.603674 L356.438065,197.821453 L356.335986,196.85024 L357.118207,195.884278 L356.934466,194.136095 L356.060374,194.227966 L353.314139,202.666723 L351.468835,202.860672 L351.366756,201.889459 L352.742499,197.227931 L339.593493,210.393247 L336.787477,208.920677 L337.559489,207.857593 L337.283877,205.235318 L334.748223,207.269322 L332.816299,205.70488 C331.992861,197.870391 348.097377,144.626315 381.13033,45.9710561 C382.971664,38.5765825 386.482192,34.6071943 391.66202,34.0627725 Z" id="Swish"></path>
                </g>
            </g>
        </g>
    </g>
</svg>