<?xml version="1.0" encoding="UTF-8"?>
<svg width="500px" height="500px" viewBox="0 0 500 500" version="1.1" xmlns="http://www.w3.org/2000/svg" xmlns:xlink="http://www.w3.org/1999/xlink">
    <!-- Generator: Sketch 40.3 (33839) - http://www.bohemiancoding.com/sketch -->
    <title>Logo Squared</title>
    <desc>Created with Sketch.</desc>
    <defs>
        <linearGradient x1="31.0454694%" y1="0%" x2="69.5279252%" y2="100%" id="linearGradient-1">
            <stop stop-color="#04DD41" offset="0%"></stop>
            <stop stop-color="#FE4BB5" offset="100%"></stop>
        </linearGradient>
    </defs>
    <g id="Logo-With-Background" stroke="none" stroke-width="1" fill="none" fill-rule="evenodd">
        <g id="Logo-Squared">
            <rect id="Background" fill="url(#linearGradient-1)" x="0" y="0" width="500" height="500" rx="10"></rect>
            <g transform="translate(100.000000, 100.000000)" id="S" fill="#FFFFFF">
                <path d="M176.260571,0.231894436 L178.167103,0.0315098073 C180.976744,-0.263795332 184.951382,1.51656452 190.091136,5.37264279 L191.08915,6.18081804 L191.992244,6.08589901 L191.479372,9.893539 L193.563681,21.0371267 C193.607868,31.1101277 190.72002,36.4523999 184.90005,37.0641034 L179.280797,37.6547107 C154.930577,40.2140219 125.342198,51.8119765 90.5147724,72.4489225 L90.7046104,74.2551111 L91.6077047,74.1601921 C137.223281,73.1533732 162.762177,76.7591066 168.225159,84.9775005 C172.840594,87.0625366 175.475216,91.2156659 176.129106,97.4370132 C176.60821,118.08303 175.208826,128.578142 171.930911,128.922664 C158.986587,140.901895 144.315838,150.931943 127.918226,159.013111 C103.21805,170.469416 69.1122341,184.131575 25.5997569,200 L24.6017436,199.191825 L24.496278,198.188387 L30.7338685,194.793577 L30.5334839,192.887045 L20.4987999,195.869326 L20.3933343,194.865888 C20.2456818,193.461068 21.6858379,192.362823 24.7138459,191.57112 L24.5240079,189.764931 L21.7143812,190.060235 L21.5139966,188.153703 L23.4205289,187.953318 L23.3256099,187.050224 L17.5059719,185.734299 L18.3141472,184.736285 L18.0188435,181.926659 C15.5436838,182.186808 14.207689,181.380349 14.0108189,179.507255 L13.2026436,180.505268 L11.2961113,180.705653 L11.2011922,179.802558 L12.0093675,178.804545 L11.9144484,177.901451 L10.1082599,178.091289 C9.97466945,176.820261 8.97134238,176.28319 7.09824857,176.48006 L7.00332953,175.576966 C6.67286902,172.432844 30.9413719,161.05586 79.8095663,141.445672 C112.041294,126.357091 130.524968,116.568813 135.261143,112.080544 C81.9806266,114.163521 54.9329719,111.325072 54.1173672,103.565112 C47.4741554,100.20523 43.7448031,94.6453917 42.9291985,86.8854316 C42.1768735,79.7275374 45.0406183,70.938455 51.5205188,60.5179207 C93.7404902,24.6300533 135.320092,4.53491218 176.260571,0.231894436 L176.260571,0.231894436 L176.260571,0.231894436 Z"></path>
            </g>
        </g>
    </g>
</svg>