<?xml version="1.0" encoding="UTF-8"?>
<svg width="1000px" height="500px" viewBox="0 0 1000 500" version="1.1" xmlns="http://www.w3.org/2000/svg" xmlns:xlink="http://www.w3.org/1999/xlink">
    <!-- Generator: Sketch 40.3 (33839) - http://www.bohemiancoding.com/sketch -->
    <title>Logo</title>
    <desc>Created with Sketch.</desc>
    <defs>
        <linearGradient x1="31.0454694%" y1="0%" x2="69.5279252%" y2="100%" id="linearGradient-1">
            <stop stop-color="#00C738" offset="0%"></stop>
            <stop stop-color="#FF4AB5" offset="100%"></stop>
        </linearGradient>
    </defs>
    <g id="Page-1" stroke="none" stroke-width="1" fill="none" fill-rule="evenodd">
        <g id="Logo">
            <rect id="Rectangle" fill="url(#linearGradient-1)" x="0" y="0" width="1000" height="500"></rect>
            <g id="Font" transform="translate(67.000000, 62.000000)" fill="#FFFFFF">
                <path d="M133.929959,323.005195 L133.83721,322.203015 L132.516024,321.720005 L124.07604,322.168503 L121.433667,321.202483 L131.93804,320.12581 L96.719328,320.003602 L95.3981415,319.520592 L95.1825487,318.750329 L98.8377665,318.626914 L101.048954,318.052407 L99.7277675,317.569397 L84.1001914,318.232807 L81.3110198,317.21312 L90.9794415,316.445451 L54.5120126,312.332673 L52.7596405,310.309137 L55.3092645,310.472976 L58.6260458,309.611215 L52.3045002,308.683025 L51.8733146,307.142498 C61.7827602,304.567842 573.978037,252.75834 757.94044,245.541167 C770.863673,244.631717 776.137355,253.88542 776.137355,253.88542 C792.383137,259.824681 756.37235,265.684744 756.37235,265.684744 C757.975106,266.270691 138.781498,323.703271 133.929959,323.005195 Z" id="Line" transform="translate(416.110304, 284.244888) rotate(-1.000000) translate(-416.110304, -284.244888) "></path>
                <text id="Swish" transform="translate(433.130820, 155.500000) rotate(-6.000000) translate(-433.130820, -155.500000) " font-family="lazer84" font-size="200" font-weight="normal">
                    <tspan x="118.873008" y="225">Swish</tspan>
                </text>
            </g>
        </g>
    </g>
</svg>